# xmcd CD database file
#
# Track frame offsets:
#	150
#	14737
#	26673
#	41519
#	56999
#	71767
#	84533
#	95972
#	108927
#	122318
#	134504
#	159260
#	172604
#	185747
#	200584
#	213896
#	228198
#	239981
#
# Disc length: 3382 seconds
#
# Revision: 1
# Processed by: cddbd v1.5.2PL0 Copyright (c) Steve Scherf et al.
# Submitted via: CDex 1.79
#
DISCID=010d3412
DTITLE=Count Basie - Jazz Giants CD2
DYEAR=2004
DGENRE=Jazz
TTITLE0=Swingin' The Blues
TTITLE1=St. Louis Boogie
TTITLE2=Basie's Basement
TTITLE3=One O'Clock Boogie
TTITLE4=I Ain't Mad At You
TTITLE5=South
TTITLE6=Backstage At Stuff's
TTITLE7=Lonesome Miss Pretty
TTITLE8=Bolero At The Savoy
TTITLE9=Pound Cake
TTITLE10=Miss Thing
TTITLE11=The Apple Jump
TTITLE12=You Can Count On Me
TTITLE13=Patience And Fortitude
TTITLE14=Jimmy's Blues
TTITLE15=Avenue C
TTITLE16=Red Bank Boogie
TTITLE17=Queer Street
EXTD=YEAR: 2004
EXTT0=
EXTT1=
EXTT2=
EXTT3=
EXTT4=
EXTT5=
EXTT6=
EXTT7=
EXTT8=
EXTT9=
EXTT10=
EXTT11=
EXTT12=
EXTT13=
EXTT14=
EXTT15=
EXTT16=
EXTT17=
PLAYORDER=
